<mxfile host="app.diagrams.net" agent="Mozilla/5.0 (Windows NT 10.0; Win64; x64) AppleWebKit/537.36 (KHTML, like Gecko) Chrome/132.0.0.0 Safari/537.36 Edg/132.0.0.0" version="26.0.6">
  <diagram name="Page-1" id="uWt0DXkAwFjxTNQVACbC">
    <mxGraphModel dx="840" dy="169" grid="1" gridSize="10" guides="1" tooltips="1" connect="1" arrows="1" fold="1" page="1" pageScale="1" pageWidth="540" pageHeight="280" background="#ffffff" math="0" shadow="0">
      <root>
        <mxCell id="0" />
        <mxCell id="1" parent="0" />
        <mxCell id="NAyeFVG812MS7HLilraX-1" value=":FMU 1" style="shape=umlLifeline;perimeter=lifelinePerimeter;whiteSpace=wrap;html=1;container=1;dropTarget=0;collapsible=0;recursiveResize=0;outlineConnect=0;portConstraint=eastwest;newEdgeStyle={&quot;edgeStyle&quot;:&quot;elbowEdgeStyle&quot;,&quot;elbow&quot;:&quot;vertical&quot;,&quot;curved&quot;:0,&quot;rounded&quot;:0};" parent="1" vertex="1">
          <mxGeometry x="-27" y="40" width="100" height="350" as="geometry" />
        </mxCell>
        <mxCell id="NAyeFVG812MS7HLilraX-2" value=":Bus Simulation" style="shape=umlLifeline;perimeter=lifelinePerimeter;whiteSpace=wrap;html=1;container=1;dropTarget=0;collapsible=0;recursiveResize=0;outlineConnect=0;portConstraint=eastwest;newEdgeStyle={&quot;edgeStyle&quot;:&quot;elbowEdgeStyle&quot;,&quot;elbow&quot;:&quot;vertical&quot;,&quot;curved&quot;:0,&quot;rounded&quot;:0};" parent="1" vertex="1">
          <mxGeometry x="265" y="40" width="100" height="350" as="geometry" />
        </mxCell>
        <mxCell id="NAyeFVG812MS7HLilraX-3" value=":FMU 3" style="shape=umlLifeline;perimeter=lifelinePerimeter;whiteSpace=wrap;html=1;container=1;dropTarget=0;collapsible=0;recursiveResize=0;outlineConnect=0;portConstraint=eastwest;newEdgeStyle={&quot;edgeStyle&quot;:&quot;elbowEdgeStyle&quot;,&quot;elbow&quot;:&quot;vertical&quot;,&quot;curved&quot;:0,&quot;rounded&quot;:0};" parent="1" vertex="1">
          <mxGeometry x="406" y="40" width="100" height="350" as="geometry" />
        </mxCell>
        <mxCell id="NAyeFVG812MS7HLilraX-5" value=":FMU 2" style="shape=umlLifeline;perimeter=lifelinePerimeter;whiteSpace=wrap;html=1;container=1;dropTarget=0;collapsible=0;recursiveResize=0;outlineConnect=0;portConstraint=eastwest;newEdgeStyle={&quot;edgeStyle&quot;:&quot;elbowEdgeStyle&quot;,&quot;elbow&quot;:&quot;vertical&quot;,&quot;curved&quot;:0,&quot;rounded&quot;:0};" parent="1" vertex="1">
          <mxGeometry x="119" y="40" width="100" height="350" as="geometry" />
        </mxCell>
        <mxCell id="NAyeFVG812MS7HLilraX-6" value="Transmit(2)" style="html=1;verticalAlign=bottom;endArrow=block;edgeStyle=elbowEdgeStyle;elbow=vertical;curved=0;rounded=0;" parent="1" edge="1">
          <mxGeometry width="80" relative="1" as="geometry">
            <mxPoint x="170.02380952380963" y="209" as="sourcePoint" />
            <mxPoint x="309" y="209" as="targetPoint" />
            <Array as="points">
              <mxPoint x="270" y="209" />
              <mxPoint x="260" y="199" />
              <mxPoint x="280" y="199" />
              <mxPoint x="140" y="199" />
            </Array>
          </mxGeometry>
        </mxCell>
        <mxCell id="NAyeFVG812MS7HLilraX-8" value="Bus Error(Collision)" style="html=1;verticalAlign=bottom;endArrow=block;edgeStyle=elbowEdgeStyle;elbow=vertical;curved=0;rounded=0;" parent="1" edge="1">
          <mxGeometry x="-0.0178" width="80" relative="1" as="geometry">
            <mxPoint x="313.5" y="340" as="sourcePoint" />
            <mxPoint x="174.02380952380963" y="340" as="targetPoint" />
            <Array as="points">
              <mxPoint x="194" y="340" />
              <mxPoint x="264" y="330" />
              <mxPoint x="264" y="340" />
              <mxPoint x="284" y="350" />
              <mxPoint x="294" y="400" />
              <mxPoint x="274" y="410" />
              <mxPoint x="154" y="370" />
              <mxPoint x="264" y="380" />
              <mxPoint x="284" y="380" />
              <mxPoint x="254" y="360" />
            </Array>
            <mxPoint as="offset" />
          </mxGeometry>
        </mxCell>
        <mxCell id="NAyeFVG812MS7HLilraX-9" value="Bus Error(Collision)" style="html=1;verticalAlign=bottom;endArrow=block;edgeStyle=elbowEdgeStyle;elbow=vertical;curved=0;rounded=0;exitX=0.987;exitY=0.531;exitDx=0;exitDy=0;exitPerimeter=0;" parent="1" edge="1">
          <mxGeometry x="-0.0369" width="80" relative="1" as="geometry">
            <mxPoint x="317.3700000000001" y="314.76400000000007" as="sourcePoint" />
            <mxPoint x="450.9999999999998" y="314.99" as="targetPoint" />
            <Array as="points">
              <mxPoint x="316.5" y="314.99" />
              <mxPoint x="296.5" y="325.99" />
              <mxPoint x="306.5" y="375.99" />
              <mxPoint x="286.5" y="385.99" />
              <mxPoint x="166.5" y="345.99" />
              <mxPoint x="276.5" y="355.99" />
              <mxPoint x="296.5" y="355.99" />
              <mxPoint x="266.5" y="335.99" />
            </Array>
            <mxPoint as="offset" />
          </mxGeometry>
        </mxCell>
        <mxCell id="PnZo2qyIhUUL4N1AdiOX-1" value="" style="points=[];perimeter=orthogonalPerimeter;rounded=0;shadow=0;strokeWidth=1;" vertex="1" parent="1">
          <mxGeometry x="18" y="106" width="10" height="264" as="geometry" />
        </mxCell>
        <mxCell id="PnZo2qyIhUUL4N1AdiOX-2" value="" style="points=[];perimeter=orthogonalPerimeter;rounded=0;shadow=0;strokeWidth=1;" vertex="1" parent="1">
          <mxGeometry x="164" y="106" width="10" height="264" as="geometry" />
        </mxCell>
        <mxCell id="PnZo2qyIhUUL4N1AdiOX-4" value="" style="points=[];perimeter=orthogonalPerimeter;rounded=0;shadow=0;strokeWidth=1;" vertex="1" parent="1">
          <mxGeometry x="451" y="106" width="10" height="264" as="geometry" />
        </mxCell>
        <mxCell id="NAyeFVG812MS7HLilraX-7" value="Bus Error(Collision)" style="html=1;verticalAlign=bottom;endArrow=block;edgeStyle=elbowEdgeStyle;elbow=vertical;curved=0;rounded=0;exitX=-0.131;exitY=0.54;exitDx=0;exitDy=0;exitPerimeter=0;" parent="1" edge="1">
          <mxGeometry x="0.4921" width="80" relative="1" as="geometry">
            <mxPoint x="310.69000000000005" y="284.16" as="sourcePoint" />
            <mxPoint x="30.023809523809632" y="284" as="targetPoint" />
            <Array as="points">
              <mxPoint x="160" y="284" />
              <mxPoint x="280" y="294" />
              <mxPoint x="290" y="344" />
              <mxPoint x="270" y="354" />
              <mxPoint x="150" y="314" />
              <mxPoint x="260" y="324" />
              <mxPoint x="280" y="324" />
              <mxPoint x="250" y="304" />
            </Array>
            <mxPoint as="offset" />
          </mxGeometry>
        </mxCell>
        <mxCell id="NAyeFVG812MS7HLilraX-4" value="Transmit(1)" style="html=1;verticalAlign=bottom;endArrow=block;edgeStyle=elbowEdgeStyle;elbow=vertical;curved=0;rounded=0;exitX=1.089;exitY=0.098;exitDx=0;exitDy=0;exitPerimeter=0;" parent="1" edge="1">
          <mxGeometry x="-0.4125" width="80" relative="1" as="geometry">
            <mxPoint x="27.889999999999986" y="137.91199999999998" as="sourcePoint" />
            <mxPoint x="309" y="138" as="targetPoint" />
            <Array as="points">
              <mxPoint x="248" y="138" />
              <mxPoint x="268" y="138" />
              <mxPoint x="128" y="138" />
            </Array>
            <mxPoint as="offset" />
          </mxGeometry>
        </mxCell>
        <mxCell id="PnZo2qyIhUUL4N1AdiOX-12" value="" style="strokeWidth=2;html=1;shape=mxgraph.flowchart.annotation_2;align=left;labelPosition=right;pointerEvents=1;fontSize=11;fillColor=none;" vertex="1" parent="1">
          <mxGeometry x="-23" y="261" width="17" height="100" as="geometry" />
        </mxCell>
        <mxCell id="PnZo2qyIhUUL4N1AdiOX-13" value="Event Mode" style="text;align=left;fontStyle=0;verticalAlign=middle;spacingLeft=3;spacingRight=3;strokeColor=none;rotatable=0;points=[[0,0.5],[1,0.5]];portConstraint=eastwest;fontSize=11;fillColor=none;" vertex="1" parent="1">
          <mxGeometry x="-90" y="297" width="80" height="26" as="geometry" />
        </mxCell>
        <mxCell id="PnZo2qyIhUUL4N1AdiOX-9" value="" style="strokeWidth=2;html=1;shape=mxgraph.flowchart.annotation_2;align=left;labelPosition=right;pointerEvents=1;fontSize=11;fillColor=none;" vertex="1" parent="1">
          <mxGeometry x="-23" y="193" width="17" height="34" as="geometry" />
        </mxCell>
        <mxCell id="PnZo2qyIhUUL4N1AdiOX-10" value="Event Mode" style="text;align=left;fontStyle=0;verticalAlign=middle;spacingLeft=3;spacingRight=3;strokeColor=none;rotatable=0;points=[[0,0.5],[1,0.5]];portConstraint=eastwest;fontSize=11;fillColor=none;" vertex="1" parent="1">
          <mxGeometry x="-90" y="196" width="80" height="26" as="geometry" />
        </mxCell>
        <mxCell id="PnZo2qyIhUUL4N1AdiOX-5" value="" style="strokeWidth=2;html=1;shape=mxgraph.flowchart.annotation_2;align=left;labelPosition=right;pointerEvents=1;fontSize=11;fillColor=none;" vertex="1" parent="1">
          <mxGeometry x="-23" y="116" width="17" height="44" as="geometry" />
        </mxCell>
        <mxCell id="PnZo2qyIhUUL4N1AdiOX-6" value="Event Mode" style="text;align=left;fontStyle=0;verticalAlign=middle;spacingLeft=3;spacingRight=3;strokeColor=none;rotatable=0;points=[[0,0.5],[1,0.5]];portConstraint=eastwest;fontSize=11;fillColor=none;" vertex="1" parent="1">
          <mxGeometry x="-90" y="124" width="80" height="26" as="geometry" />
        </mxCell>
        <mxCell id="PnZo2qyIhUUL4N1AdiOX-17" value="" style="group" vertex="1" connectable="0" parent="1">
          <mxGeometry x="-90" y="230" width="84" height="26" as="geometry" />
        </mxCell>
        <mxCell id="PnZo2qyIhUUL4N1AdiOX-14" value="" style="strokeWidth=2;html=1;shape=mxgraph.flowchart.annotation_2;align=left;labelPosition=right;pointerEvents=1;fontSize=11;fillColor=none;" vertex="1" parent="PnZo2qyIhUUL4N1AdiOX-17">
          <mxGeometry x="67" y="4" width="17" height="20" as="geometry" />
        </mxCell>
        <mxCell id="PnZo2qyIhUUL4N1AdiOX-15" value="Step Mode" style="text;align=left;fontStyle=0;verticalAlign=middle;spacingLeft=3;spacingRight=3;strokeColor=none;rotatable=0;points=[[0,0.5],[1,0.5]];portConstraint=eastwest;fontSize=11;fillColor=none;" vertex="1" parent="PnZo2qyIhUUL4N1AdiOX-17">
          <mxGeometry width="80" height="26" as="geometry" />
        </mxCell>
        <mxCell id="PnZo2qyIhUUL4N1AdiOX-18" value="" style="group" vertex="1" connectable="0" parent="1">
          <mxGeometry x="-90" y="163" width="84" height="26" as="geometry" />
        </mxCell>
        <mxCell id="PnZo2qyIhUUL4N1AdiOX-19" value="" style="strokeWidth=2;html=1;shape=mxgraph.flowchart.annotation_2;align=left;labelPosition=right;pointerEvents=1;fontSize=11;fillColor=none;" vertex="1" parent="PnZo2qyIhUUL4N1AdiOX-18">
          <mxGeometry x="67" y="4" width="17" height="20" as="geometry" />
        </mxCell>
        <mxCell id="PnZo2qyIhUUL4N1AdiOX-20" value="Step Mode" style="text;align=left;fontStyle=0;verticalAlign=middle;spacingLeft=3;spacingRight=3;strokeColor=none;rotatable=0;points=[[0,0.5],[1,0.5]];portConstraint=eastwest;fontSize=11;fillColor=none;" vertex="1" parent="PnZo2qyIhUUL4N1AdiOX-18">
          <mxGeometry width="80" height="26" as="geometry" />
        </mxCell>
        <mxCell id="PnZo2qyIhUUL4N1AdiOX-21" value="T&lt;sub&gt;transmit&lt;/sub&gt;" style="endArrow=classic;startArrow=classic;html=1;rounded=0;fillColor=#f5f5f5;strokeColor=#666666;" edge="1" parent="1">
          <mxGeometry x="0.02" y="-23" width="50" height="50" relative="1" as="geometry">
            <mxPoint x="549" y="259" as="sourcePoint" />
            <mxPoint x="549" y="118" as="targetPoint" />
            <mxPoint as="offset" />
          </mxGeometry>
        </mxCell>
        <mxCell id="PnZo2qyIhUUL4N1AdiOX-3" value="" style="points=[];perimeter=orthogonalPerimeter;rounded=0;shadow=0;strokeWidth=1;" vertex="1" parent="1">
          <mxGeometry x="310" y="106" width="10" height="264" as="geometry" />
        </mxCell>
        <mxCell id="PnZo2qyIhUUL4N1AdiOX-23" value="" style="endArrow=none;dashed=1;html=1;rounded=0;fillColor=#f5f5f5;strokeColor=#666666;exitX=1;exitY=0;exitDx=0;exitDy=0;exitPerimeter=0;" edge="1" parent="1">
          <mxGeometry width="50" height="50" relative="1" as="geometry">
            <mxPoint x="-5" y="261" as="sourcePoint" />
            <mxPoint x="550" y="261" as="targetPoint" />
          </mxGeometry>
        </mxCell>
        <mxCell id="PnZo2qyIhUUL4N1AdiOX-22" value="" style="endArrow=none;dashed=1;html=1;rounded=0;fillColor=#f5f5f5;strokeColor=#666666;exitX=1;exitY=0;exitDx=0;exitDy=0;exitPerimeter=0;" edge="1" parent="1">
          <mxGeometry width="50" height="50" relative="1" as="geometry">
            <mxPoint x="-5" y="116" as="sourcePoint" />
            <mxPoint x="550" y="116" as="targetPoint" />
          </mxGeometry>
        </mxCell>
      </root>
    </mxGraphModel>
  </diagram>
</mxfile>
